<svg width="52" height="52" viewBox="0 0 52 52" fill="none" xmlns="http://www.w3.org/2000/svg">
<path d="M46.8412 51.5H4.65883C2.08316 51.5 0 49.4168 0 46.8412V4.65883C0 2.08316 2.08316 0 4.65883 0H46.8412C49.4168 0 51.5 2.08316 51.5 4.65883V46.8412C51.5 49.4168 49.4168 51.5 46.8412 51.5Z" fill="#0B1237"/>
<mask id="mask0_1607_784" style="mask-type:luminance" maskUnits="userSpaceOnUse" x="0" y="0" width="26" height="52">
<path d="M0 0L25.75 25.75L0 51.5V0Z" fill="white"/>
</mask>
<g mask="url(#mask0_1607_784)">
<path d="M46.8412 51.5H4.65883C2.08316 51.5 0 49.4168 0 46.8412V4.65883C0 2.08316 2.08316 0 4.65883 0H46.8412C49.4168 0 51.5 2.08316 51.5 4.65883V46.8412C51.5 49.4168 49.4168 51.5 46.8412 51.5Z" fill="#DE2D21"/>
</g>
<path fill-rule="evenodd" clip-rule="evenodd" d="M20.0797 22.3224L19.9599 22.562L19.9399 22.602C19.9399 22.6086 19.9266 22.6219 19.9266 22.6286C19.9199 22.6419 19.9133 22.6552 19.9066 22.6685L19.8733 22.7417C19.8733 22.7484 19.8667 22.7484 19.8667 22.755L19.4208 23.4938C19.4208 23.5004 19.4141 23.5071 19.4141 23.5071C19.4141 23.5138 19.4008 23.5271 19.4008 23.5337C19.4008 23.5404 19.3942 23.5404 19.3942 23.547L19.3409 23.6202C19.3276 23.6402 19.3409 23.6202 19.3143 23.6602L18.9016 24.3457C18.8883 24.3723 18.895 24.359 18.8817 24.3856L18.5622 24.9314C18.5023 25.0179 18.5356 25.0112 18.4491 25.1177L18.3226 25.3507C18.3027 25.3773 18.316 25.3573 18.296 25.3906L18.2494 25.4505C18.2494 25.4571 18.2361 25.4705 18.2361 25.4771L18.0032 25.8831C18.0032 25.8831 17.9832 25.9097 17.9765 25.9164L17.7037 26.3823C17.697 26.3889 17.6637 26.4355 17.6571 26.4422C17.6571 26.4488 17.6504 26.4488 17.6504 26.4555C17.6504 26.4621 17.6438 26.4621 17.6438 26.4688L17.6171 26.5287C17.6171 26.5353 17.6105 26.542 17.6105 26.542C17.6038 26.5686 17.6038 26.562 17.6038 26.5952H17.5639C17.5639 26.5886 17.5572 26.5753 17.5572 26.5819L17.5373 26.542C17.5373 26.5353 17.5306 26.5353 17.5306 26.5287L17.3775 26.2758C17.3775 26.2691 17.3709 26.2691 17.3709 26.2625C17.3709 26.2558 17.3642 26.2491 17.3642 26.2491L17.2711 26.1094L17.2511 26.0695C17.2444 26.0495 17.2444 26.0561 17.2378 26.0428L17.2178 26.0029C17.2178 25.9962 17.2112 25.9962 17.2112 25.9896L17.0182 25.6701C17.0115 25.6635 17.0048 25.6502 16.9982 25.6502C16.9782 25.6235 16.9915 25.6435 16.9716 25.6102L16.8984 25.4705C16.8984 25.4638 16.8917 25.4638 16.8917 25.4571L16.8651 25.4039C16.8584 25.3973 16.8185 25.3507 16.8185 25.344L16.7985 25.3174L16.7786 25.2775L16.499 24.8182C16.4924 24.8116 16.4857 24.7983 16.4857 24.7916L16.3459 24.552C16.3459 24.5453 16.3393 24.5454 16.3393 24.5387L16.2994 24.4721C16.2994 24.4655 16.2927 24.4655 16.2927 24.4588L16.2528 24.3723L16.2328 24.3324L16.0065 23.9863C16.0065 23.9796 15.9999 23.9796 15.9999 23.973L15.8335 23.6935C15.8335 23.6868 15.8268 23.6868 15.8268 23.6801C15.8268 23.6735 15.8202 23.6735 15.8202 23.6668C15.8202 23.6602 15.8135 23.6602 15.8135 23.6535L15.6272 23.3341C15.6272 23.3274 15.6205 23.3274 15.6205 23.3207C15.6072 23.3008 15.6138 23.3074 15.5939 23.2875L15.3609 22.9015C15.3609 22.8948 15.3543 22.8948 15.3543 22.8881L15.128 22.4822C15.128 22.4755 15.1147 22.4622 15.1147 22.4555C15.0814 22.3956 15.0548 22.3956 15.0348 22.3424H13.3044L13.2977 23.7201C13.2711 23.8399 13.2578 23.8332 13.2578 23.973C13.2778 25.9896 13.2578 28.0062 13.2578 30.0161C13.4708 30.0161 14.7486 30.0361 14.9416 30.0161C15.0748 30.0028 15.0015 30.0361 15.0282 29.9696C15.0947 29.9429 15.0748 29.9962 15.0748 29.7366V25.3507C15.148 25.3773 15.1546 25.4239 15.1879 25.4904L15.2545 25.6169C15.2744 25.6435 15.2611 25.6235 15.2811 25.6568L15.3942 25.8432C15.3942 25.8498 15.4009 25.8498 15.4009 25.8565C15.4874 26.0295 15.4608 25.923 15.534 26.0628C15.534 26.0695 15.5406 26.0695 15.5406 26.0761L15.8268 26.5486C15.8268 26.5553 15.8401 26.5686 15.8401 26.5753L15.8668 26.6285C15.8668 26.6352 15.8734 26.6352 15.8734 26.6418C15.8734 26.6485 15.8801 26.6485 15.8801 26.6551L15.9932 26.8348C15.9932 26.8415 15.9999 26.8415 15.9999 26.8481L16.0132 26.8748C16.0132 26.8814 16.0265 26.8947 16.0265 26.9014L16.0797 27.0012C16.0797 27.0079 16.0864 27.0079 16.0864 27.0145L16.3593 27.4671C16.3593 27.4738 16.3726 27.4871 16.3726 27.4937L16.4591 27.6202C16.4591 27.6268 16.4657 27.6268 16.4657 27.6335L16.5323 27.7599C16.5456 27.7866 16.539 27.7799 16.5523 27.7999L16.6854 28.0262C16.6854 28.0328 16.692 28.0328 16.692 28.0395C16.692 28.0461 16.6987 28.0461 16.6987 28.0528C16.6987 28.0594 16.712 28.0727 16.712 28.0794L16.9583 28.4721C16.9583 28.4787 16.9716 28.492 16.9716 28.4987L17.3775 29.1975C17.3775 29.1975 17.3975 29.2241 17.4042 29.2308C17.484 29.3373 17.3443 29.1376 17.4241 29.2574C17.4374 29.2774 17.4308 29.2707 17.4441 29.2974L17.4774 29.3706C17.4774 29.3772 17.484 29.3772 17.484 29.3839L17.5173 29.4305C17.5639 29.4837 17.5306 29.4172 17.5639 29.4904H17.6038C17.6171 29.4438 17.6105 29.4704 17.6371 29.4371L17.6837 29.3772C17.6837 29.3706 17.697 29.3573 17.697 29.3506L17.89 29.0112L17.91 28.9712C17.91 28.9646 17.9166 28.9646 17.9166 28.9579L18.1829 28.5253C18.1829 28.5187 18.1895 28.512 18.1895 28.512C18.2694 28.3523 18.2428 28.4521 18.296 28.3456L18.7752 27.5337C18.7752 27.527 18.7819 27.527 18.7819 27.5203L19.0414 27.1011C19.0414 27.0944 19.0481 27.0944 19.0481 27.0877L19.1146 26.9613C19.1146 26.9546 19.1213 26.9546 19.1213 26.948L19.1812 26.8415C19.1878 26.8348 19.1945 26.8215 19.2011 26.8215L19.2411 26.755C19.2411 26.7483 19.2477 26.7483 19.2477 26.7417L19.4008 26.4887L19.4208 26.4488C19.4407 26.4089 19.4141 26.4621 19.4341 26.4222L19.4541 26.3823L19.6936 26.0029C19.6936 25.9962 19.7003 25.9962 19.7003 25.9896C19.7003 25.9829 19.707 25.9829 19.707 25.9763L19.7336 25.9164C19.7336 25.9097 19.7402 25.9097 19.7402 25.9031L19.9332 25.5703C19.9466 25.5503 19.9399 25.557 19.9599 25.537L20.0198 25.4438C20.0397 25.3972 20.0464 25.364 20.093 25.344V30.0028L21.8633 29.9829C21.9099 29.9629 21.8234 29.9895 21.9033 29.9629C21.8766 29.8897 21.8567 29.8697 21.8567 29.7765V22.8083C21.8567 22.6951 21.8367 22.5687 21.8633 22.4555C21.8766 22.3956 21.87 22.4289 21.8766 22.4089C21.8966 22.3624 21.87 22.4489 21.8966 22.369C21.6969 22.3025 21.7236 22.3291 21.464 22.3291C21.1778 22.3291 20.4524 22.3624 20.2128 22.3091C20.1462 22.2891 20.2061 22.3224 20.0797 22.3224Z" fill="white"/>
<path fill-rule="evenodd" clip-rule="evenodd" d="M34.2228 25.9895V23.8531C34.5223 23.8531 36.1595 23.8331 36.2993 23.8531C36.3525 23.8597 36.3326 23.8597 36.3459 23.8664L36.8517 24.0794C36.865 24.0927 36.9049 24.1259 36.9249 24.1326C36.9515 24.1526 36.9449 24.1393 36.9648 24.1526L37.2577 24.5519L37.3242 24.7782C37.3509 24.9046 37.3242 25.0377 37.2976 25.1376C37.2777 25.2108 37.2976 25.2041 37.2643 25.2907L37.1379 25.4903C36.9648 25.6634 36.9648 25.6966 36.7785 25.7832L36.7119 25.8164C36.652 25.8497 36.5855 25.8896 36.5056 25.903C36.4856 25.9096 36.479 25.903 36.4524 25.9096L36.3592 25.9429C36.1462 25.9895 35.6936 25.8963 35.4674 25.9762C35.3942 26.0028 35.3609 25.9895 35.2744 25.9895C34.9216 25.9895 34.5689 25.9895 34.2228 25.9895ZM32.499 22.3423V29.9694C32.692 29.9694 32.732 29.9561 32.905 30.0027L34.0963 30.016C34.2228 30.0027 34.1496 30.036 34.1762 29.9694C34.2361 29.9428 34.2161 29.9894 34.2228 29.8696C34.2361 29.5036 34.2228 29.1242 34.2228 28.7582C34.2228 28.3389 34.2228 27.9196 34.2228 27.5003H35.4407C35.4607 27.5668 35.4407 27.5202 35.494 27.5735C35.5206 27.6001 35.5006 27.5735 35.5273 27.6068L36.5322 28.9911C36.5589 29.0177 36.5722 29.0244 36.5988 29.071L36.7186 29.224C36.7186 29.2307 36.7252 29.2307 36.7252 29.2373L37.2244 29.9295C37.2776 30.0094 37.2577 29.9362 37.2843 30.016H39.2543C39.2543 29.9295 39.2277 29.9229 39.1478 29.8097L38.9415 29.5169C38.9349 29.5102 38.9282 29.4969 38.9215 29.4969C38.835 29.3971 38.7685 29.264 38.682 29.1708L38.6354 29.1109C38.6354 29.1042 38.6221 29.0909 38.6221 29.0843C38.6021 29.051 38.6221 29.0776 38.5954 29.0443L38.4091 28.7914C38.4091 28.7848 38.4024 28.7848 38.4024 28.7781L37.8833 28.086C37.87 28.0726 37.8567 28.0593 37.8567 28.0527L37.3309 27.3006C37.4307 27.3006 37.484 27.254 37.5705 27.2274L37.7768 27.1209C37.7835 27.1209 37.7968 27.1076 37.8034 27.1076L37.8567 27.081C37.8633 27.081 37.8633 27.0743 37.87 27.0743C37.8766 27.0743 37.8766 27.0677 37.8833 27.0677L38.2294 26.8081C38.256 26.7948 38.2427 26.8014 38.2693 26.7881C38.3625 26.7282 38.5289 26.5552 38.5755 26.4687L38.7618 26.2158C38.7618 26.2091 38.7685 26.2091 38.7685 26.2025L38.8816 25.9828L38.8949 25.9562L38.9415 25.8564C38.9482 25.8497 38.9615 25.8164 38.9615 25.8164C38.9615 25.8098 38.9748 25.7965 38.9748 25.7898L39.048 25.5236C39.048 25.5169 39.0613 25.5036 39.0613 25.497C39.0813 25.4304 39.068 25.3639 39.1079 25.2308C39.1212 25.1908 39.1146 25.1775 39.1212 25.1376C39.1212 25.0045 39.1478 24.8181 39.1079 24.6917L39.0946 24.665C39.0946 24.6584 39.0879 24.6584 39.0879 24.6517C39.068 24.5719 39.0813 24.4987 39.0547 24.4121C39.0547 24.4055 39.048 24.3988 39.048 24.3988L39.0147 24.2457C39.0147 24.2391 39.0081 24.2324 39.0081 24.2324C39.0081 24.2258 39.0014 24.2191 39.0014 24.2191L38.9415 24.0261C38.9415 24.0195 38.9349 24.0128 38.9349 24.0128C38.9349 24.0062 38.9282 24.0062 38.9282 23.9995L38.6354 23.4937C38.6154 23.4671 38.6287 23.4737 38.6154 23.4537C38.6154 23.4471 38.6087 23.4471 38.6087 23.4404L38.043 22.9147C38.0364 22.9147 38.0364 22.908 38.0297 22.908L37.9166 22.8348C37.89 22.8148 37.9099 22.8281 37.8766 22.8082L37.8034 22.7749C37.7968 22.7749 37.7835 22.7616 37.7768 22.7616L36.9049 22.4221C36.8983 22.4221 36.8916 22.4221 36.885 22.4155C36.7785 22.3822 36.7053 22.3955 36.6321 22.3756L33.098 22.3423C32.9183 22.3489 33.0647 22.3622 32.9316 22.3822C32.8451 22.3556 32.6122 22.3423 32.499 22.3423Z" fill="white"/>
<path fill-rule="evenodd" clip-rule="evenodd" d="M27.1539 24.6652L27.2138 24.7384C27.2138 24.745 27.2205 24.7517 27.2205 24.7517L27.3736 25.0844C27.3736 25.0911 27.3802 25.0911 27.3802 25.0978L27.6331 25.6967C27.6398 25.73 27.6331 25.7101 27.6464 25.7433C27.6464 25.75 27.6531 25.7566 27.6531 25.7566C27.6531 25.7633 27.6597 25.7633 27.6597 25.77L27.9792 26.5087C27.9792 26.5154 27.9792 26.522 27.9859 26.522C27.9859 26.5287 27.9925 26.5353 27.9925 26.5353C27.9925 26.542 27.9992 26.5486 27.9992 26.5486L28.1722 26.928C28.1722 26.9347 28.1789 26.9413 28.1789 26.9413L28.292 27.2475C28.3253 27.334 28.3586 27.314 28.3652 27.4338L28.3386 27.4205L28.3253 27.4139L26.0025 27.3939C26.0025 27.3872 26.0092 27.3739 26.0092 27.3806L26.1623 27.0678C26.1756 27.0278 26.1689 27.0212 26.1889 26.9879L26.5549 26.1427C26.5549 26.136 26.5616 26.136 26.5616 26.1294C26.5616 26.1227 26.5682 26.1227 26.5682 26.116L26.7413 25.6901C26.7413 25.6834 26.7479 25.6834 26.7479 25.6768L26.7746 25.6235C26.7746 25.6169 26.7812 25.6169 26.7812 25.6102L27.1007 24.8515C27.1273 24.7783 27.1539 24.765 27.1539 24.6652ZM22.8545 30.0161L24.8312 29.9762C24.8977 29.9496 24.8578 29.9562 24.8844 29.883L24.9909 29.6701C25.0042 29.6368 24.9976 29.6501 25.0042 29.6235L25.0308 29.5436C25.0308 29.537 25.0441 29.5236 25.0441 29.517L25.1373 29.3373C25.1373 29.3306 25.144 29.3306 25.144 29.324L25.2638 29.0444C25.2638 29.0378 25.2704 29.0378 25.2704 29.0311L25.3104 28.918C25.3104 28.9113 25.317 28.9047 25.317 28.9047L25.3436 28.8048H28.9975L29.3635 29.69C29.3635 29.6967 29.3702 29.6967 29.3702 29.7033L29.5166 30.0228H31.5332C31.5332 29.9562 31.5199 29.9562 31.4999 29.9097L31.247 29.3373C31.247 29.3306 31.2404 29.324 31.2404 29.324C31.2404 29.3173 31.2404 29.3107 31.2337 29.3107L31.094 28.9646C31.094 28.9579 31.0873 28.9513 31.0873 28.9513C31.0873 28.9446 31.0806 28.938 31.0806 28.938L31.0673 28.9113C31.0673 28.9047 31.054 28.8914 31.054 28.8847L31.0274 28.8315C31.0274 28.8248 31.0141 28.8115 31.0141 28.8048L30.9875 28.745C30.9875 28.7383 30.9875 28.7316 30.9808 28.7316L30.9675 28.6851C30.9675 28.6784 30.9609 28.6717 30.9609 28.6717L30.9475 28.6451C30.9475 28.6385 30.9409 28.6385 30.9409 28.6318C30.9409 28.6252 30.9276 28.6118 30.9276 28.6052L30.901 28.5519C30.901 28.5453 30.8876 28.532 30.8876 28.5253C30.8876 28.5187 30.881 28.5187 30.881 28.512C30.881 28.5054 30.8743 28.5054 30.8743 28.4987L30.861 28.4654C30.861 28.4588 30.861 28.4521 30.8544 28.4521L30.7146 28.126C30.7146 28.1193 30.7146 28.1127 30.7079 28.1127C30.7079 28.106 30.7013 28.0994 30.7013 28.0994L30.6614 28.0128C30.6214 27.9396 30.688 28.0594 30.648 27.9862C30.648 27.9796 30.6414 27.9796 30.6414 27.9729C30.6414 27.9663 30.6347 27.9663 30.6347 27.9596L30.5748 27.8065C30.5748 27.7999 30.5615 27.7799 30.5615 27.7799C30.5615 27.7733 30.5349 27.7333 30.5349 27.7267L30.4084 27.4338C30.4084 27.4272 30.3951 27.4139 30.3951 27.4072C30.3951 27.4005 30.3885 27.4005 30.3885 27.3939L30.3219 27.2275C30.3219 27.2208 30.3153 27.2142 30.3153 27.2142L30.282 27.141C30.282 27.1343 30.2753 27.1343 30.2753 27.1277C30.2753 27.121 30.2687 27.121 30.2687 27.1144L30.089 26.7017C30.0757 26.6684 30.0823 26.6751 30.069 26.6352L30.0091 26.522C30.0025 26.5154 29.9825 26.4688 29.9825 26.4688L29.8161 26.0628C29.8161 26.0561 29.8095 26.0561 29.8095 26.0495L29.7629 25.963C29.7629 25.9563 29.7562 25.9563 29.7562 25.9497C29.7562 25.943 29.7496 25.9363 29.7496 25.9363C29.7496 25.9297 29.7429 25.923 29.7429 25.923L29.6963 25.7966C29.6963 25.7899 29.683 25.7766 29.683 25.77L29.3635 25.0512C29.3635 25.0445 29.3569 25.0379 29.3569 25.0379C29.3569 25.0312 29.3569 25.0245 29.3502 25.0245L29.1173 24.4988C29.1173 24.4921 29.104 24.4788 29.104 24.4721C29.104 24.4655 29.0973 24.4588 29.0973 24.4588L28.8843 23.9663C28.8843 23.9597 28.8777 23.9597 28.8777 23.953L28.8444 23.8798C28.8444 23.8731 28.8378 23.8665 28.8378 23.8665L28.8045 23.7667C28.8045 23.76 28.7978 23.7534 28.7978 23.7534L28.4118 22.8682C28.4118 22.8615 28.4052 22.8615 28.4052 22.8549L28.3319 22.7151C28.3319 22.7084 28.3253 22.7018 28.3253 22.7018C28.3253 22.6951 28.3186 22.6885 28.3186 22.6885L28.2454 22.5088C28.2454 22.5021 28.2388 22.5021 28.2388 22.4955C28.2388 22.4888 28.2321 22.4888 28.2321 22.4822C28.2255 22.4755 28.2188 22.4622 28.2188 22.4555L28.1855 22.3823H26.2088C26.1756 22.4688 26.2155 22.3757 26.1822 22.4356L26.0691 22.7018C26.0691 22.7084 26.0558 22.7218 26.0558 22.7284L25.9493 22.9813C25.9493 22.988 25.9426 22.988 25.9426 22.9946C25.9426 23.0013 25.9293 23.0146 25.9293 23.0212L25.8761 23.141C25.8628 23.1743 25.8694 23.1677 25.8561 23.2076L25.6897 23.5737C25.6897 23.5803 25.6831 23.5803 25.6831 23.587L25.6431 23.6535C25.6431 23.6602 25.6365 23.6602 25.6365 23.6668L25.4767 24.0595C25.4767 24.0662 25.4767 24.0728 25.4701 24.0728L25.3769 24.2592C25.3769 24.2658 25.3636 24.2791 25.3636 24.2858L24.8578 25.4372C24.8578 25.4438 24.8511 25.4438 24.8511 25.4505C24.8511 25.4572 24.8445 25.4638 24.8445 25.4638C24.8445 25.4705 24.8378 25.4771 24.8378 25.4771L24.5783 26.0828C24.5649 26.116 24.5716 26.1094 24.5583 26.1493L23.946 27.527C23.9393 27.5337 23.9194 27.5802 23.9194 27.5802C23.9194 27.5869 23.9061 27.6002 23.9061 27.6069L23.5267 28.4787C23.5267 28.4854 23.52 28.492 23.52 28.492C23.52 28.4987 23.5134 28.5054 23.5134 28.5054L23.2339 29.1776C23.2339 29.1842 23.2205 29.2042 23.2205 29.2042L22.8545 30.0161Z" fill="white"/>
<path fill-rule="evenodd" clip-rule="evenodd" d="M7.43401 26.2023L7.26097 26.4286C7.241 26.4619 7.26097 26.4353 7.23435 26.4686C7.14117 26.5884 7.15448 26.5418 7.08793 26.6549L6.96813 26.8213C6.92154 26.8945 6.85498 26.9411 6.81505 27.0143C6.79509 27.0476 6.81505 27.021 6.78843 27.0542L6.69525 27.1674C6.66198 27.2273 6.59542 27.2739 6.55549 27.3338L6.24934 27.7531C6.22272 27.8063 6.24934 27.773 6.2094 27.8196L5.92987 28.1591C5.84335 28.3121 5.7169 28.4253 5.62372 28.5784L5.39078 28.8645C5.35085 28.9111 5.37747 28.8778 5.35085 28.9311C5.32423 28.9843 5.35085 28.9444 5.31092 28.9976C5.2244 29.1041 5.13122 29.204 5.05801 29.3238C5.05801 29.3304 5.05135 29.3304 5.05135 29.3371L4.99145 29.4036C4.96483 29.4302 4.95818 29.4303 4.93821 29.4569C4.88497 29.5234 4.87166 29.57 4.8051 29.6366L4.6254 29.8695C4.6254 29.8762 4.61875 29.8762 4.61875 29.8828C4.61875 29.8895 4.61209 29.8895 4.61209 29.8961C4.61209 29.9028 4.60544 29.9028 4.60544 29.9094L4.57216 30.0226H6.52887C6.55549 29.9427 6.64866 29.8895 6.69525 29.8096L6.97478 29.4436C7.02803 29.3504 7.10124 29.2838 7.16114 29.1907L7.27428 29.0376C7.29425 29.0043 7.27428 29.0309 7.3009 28.9976L7.73351 28.4386C7.76013 28.3987 7.78009 28.392 7.80006 28.3587L7.9132 28.199C7.95314 28.1591 7.94648 28.179 7.9731 28.1391L8.02635 28.0459C8.05962 27.9927 8.11952 27.966 8.1528 27.9061C8.16611 27.8795 8.15946 27.8862 8.17277 27.8662L8.31253 27.6732C8.36578 27.5933 8.34581 27.6666 8.37243 27.5867H8.41236C8.43233 27.6532 8.41236 27.6067 8.46561 27.6599C8.49223 27.6865 8.50554 27.6932 8.52551 27.7265L8.83831 28.1591C8.83831 28.1657 8.84497 28.1657 8.84497 28.1724C8.85162 28.179 8.85828 28.1923 8.86494 28.199L8.98473 28.3454C8.98473 28.3521 8.99139 28.3521 8.99139 28.3587L9.09788 28.4985C9.11119 28.5251 9.10453 28.5118 9.11784 28.5384C9.1245 28.5517 9.13781 28.5717 9.14446 28.5717L9.25095 28.6915C9.25095 28.6981 9.25761 28.6981 9.25761 28.7048C9.25761 28.7115 9.26426 28.7115 9.26426 28.7181C9.26426 28.7248 9.27092 28.7248 9.27092 28.7314L9.39737 28.9111C9.45727 29.0043 9.51717 29.0376 9.54379 29.0908C9.54379 29.0975 9.55045 29.0975 9.55045 29.1041L9.81667 29.4436C9.81667 29.4502 9.82332 29.4502 9.82332 29.4569L10.1761 29.9294C10.1894 29.9427 10.1827 29.9294 10.2093 29.9627C10.236 29.996 10.2227 29.9693 10.2426 30.0159H11.7135C11.7401 29.9494 11.6869 29.9693 11.9398 29.976C12.0263 29.976 12.1195 29.976 12.206 29.976C12.206 29.9094 12.1394 29.8429 12.0596 29.7231C12.0396 29.6965 12.0263 29.6898 12.013 29.6698C12.0063 29.6632 11.9997 29.6565 11.993 29.6499L11.5804 29.0642C11.5671 29.0376 11.5471 29.0243 11.5338 29.011L11.1943 28.5384C11.1012 28.4186 11.1145 28.4652 11.0479 28.3521C11.0479 28.3454 11.0413 28.3454 11.0413 28.3388C11.0346 28.3321 11.0213 28.3188 11.0147 28.3055L10.9281 28.1857C10.8616 28.0792 10.7684 27.9993 10.7018 27.8928L10.6752 27.8396C10.6553 27.813 10.6419 27.8063 10.6286 27.7864L10.582 27.7265C10.582 27.7198 10.5687 27.7065 10.5687 27.6998L10.4556 27.5468C10.429 27.4935 10.4556 27.5334 10.4157 27.4869L9.81001 26.6616C9.77673 26.615 9.74346 26.6017 9.71018 26.5551L9.47724 26.229C9.45727 26.2157 9.47058 26.2223 9.43731 26.209V26.1225C9.47724 26.1092 9.45727 26.1158 9.49055 26.0892C9.53714 26.0493 9.54379 26.016 9.57707 25.9694L9.96974 25.4303C10.003 25.397 10.043 25.3638 10.0696 25.3238L10.3424 24.9312C10.3824 24.8579 10.4756 24.7781 10.4822 24.7648C10.4955 24.7381 10.4889 24.7448 10.5022 24.7248L10.8682 24.219C10.8682 24.2124 10.8749 24.2124 10.8749 24.2057C10.9148 24.1392 10.988 24.0859 11.0213 24.026L11.1278 23.8862C11.1478 23.8596 11.1344 23.8663 11.1478 23.8463C11.2077 23.7398 11.3141 23.6467 11.3807 23.5402L11.394 23.5135C11.4339 23.4403 11.5138 23.3871 11.5471 23.3205C11.5737 23.2673 11.5471 23.3072 11.587 23.254L11.8067 22.9545C11.8399 22.9012 11.8666 22.8946 11.8998 22.8413L11.9863 22.7215C12.0529 22.655 12.0662 22.6084 12.1195 22.5418L12.186 22.462C12.1993 22.4354 12.1927 22.4487 12.206 22.422C12.206 22.4154 12.2126 22.4154 12.2126 22.4087L12.2393 22.3555H10.2493C10.2493 22.4686 10.2493 22.4087 10.2227 22.4487C10.196 22.4819 10.2093 22.462 10.1894 22.4819L9.59038 23.2939C9.57042 23.3272 9.59038 23.3006 9.56376 23.3338L9.47058 23.447C9.424 23.5269 9.34413 23.5868 9.29754 23.6733L9.03798 24.0327C9.03132 24.0393 9.02467 24.0526 9.01801 24.0526L8.79838 24.3521C8.75845 24.412 8.7052 24.4387 8.66527 24.5052L8.51885 24.7115C8.48557 24.7714 8.46561 24.7714 8.44564 24.8247L7.93983 24.1658C7.93983 24.1591 7.93317 24.1591 7.93317 24.1525L7.08793 23.0277C7.0613 23.0011 7.03468 22.9744 7.01472 22.9545C7.00806 22.9478 6.99475 22.9279 6.98809 22.9212L6.58211 22.3755C6.56214 22.3355 6.5688 22.3621 6.5688 22.3022H4.77182C4.75186 22.3488 4.71192 22.3555 4.65868 22.3422C4.53888 22.3156 4.69196 22.3089 4.53223 22.3022L4.54554 22.3755C4.57216 22.4354 4.66534 22.4953 4.69861 22.5552C4.75186 22.6483 4.79179 22.6683 4.82507 22.7349C4.84503 22.7681 4.82507 22.7415 4.85169 22.7748L5.46399 23.5868C5.47065 23.6001 5.47065 23.6001 5.4773 23.6134L6.0164 24.3388C6.0164 24.3455 6.02305 24.3455 6.02305 24.3521L6.36914 24.818C6.39576 24.8713 6.36914 24.8313 6.40907 24.8846L7.29425 26.0493C7.33418 26.1092 7.3608 26.1757 7.43401 26.2023Z" fill="white"/>
<path fill-rule="evenodd" clip-rule="evenodd" d="M40.2188 23.7799C40.3585 23.7799 41.8227 23.7599 41.9359 23.7932C42.1222 23.8531 42.4816 23.8198 42.7079 23.8198V29.9695H43.2603C43.4333 29.9828 43.2337 30.0161 43.5731 30.0094H44.3585C44.4849 29.9961 44.4117 30.0294 44.4383 29.9628C44.4649 29.9495 44.4849 29.9828 44.4849 29.8164C44.4849 29.7498 44.4849 29.6899 44.4849 29.6234V23.8065L46.8875 23.7999C46.9474 23.7799 46.9075 23.8198 46.9341 23.7599C46.9607 23.7466 46.9807 23.7799 46.9807 23.6135C46.9807 23.5469 46.9807 23.487 46.9807 23.4205V22.3889C46.9674 22.3223 46.994 22.349 46.9408 22.329C46.9208 22.2758 46.9408 22.2957 46.8809 22.2891H40.2387V23.7799H40.2188Z" fill="white"/>
</svg>
